<?xml version="1.0" standalone="no"?>
<!DOCTYPE svg PUBLIC "-//W3C//DTD SVG 20010904//EN"
 "http://www.w3.org/TR/2001/REC-SVG-20010904/DTD/svg10.dtd">
<svg version="1.0" xmlns="http://www.w3.org/2000/svg"
 width="700.000000pt" height="700.000000pt" viewBox="0 0 700.000000 700.000000"
 preserveAspectRatio="xMidYMid meet">
<metadata>
Created by potrace 1.14, written by Peter Selinger 2001-2017
</metadata>
<g transform="translate(0.000000,700.000000) scale(0.100000,-0.100000)"
fill="#000000" stroke="none">
<path d="M1117 6414 c-1 -1 -22 -4 -47 -7 -171 -20 -352 -158 -430 -326 -54
-117 -53 -98 -55 -778 -2 -570 0 -632 14 -635 13 -3 5732 -2 5797 1 l21 1 -2
633 c-2 687 -1 666 -60 788 -23 49 -111 169 -123 169 -4 0 -20 13 -37 28 -39
37 -205 123 -205 107 0 -3 -12 1 -27 7 -21 9 -622 12 -2436 13 -1324 1 -2408
0 -2410 -1z"/>
<path d="M591 4080 c-4 -3 -7 -682 -6 -1510 2 -1406 3 -1509 19 -1560 64 -198
208 -342 406 -406 51 -16 155 -17 1563 -19 1072 -1 1507 2 1508 9 1 6 2 793 2
1749 2 1538 0 1737 -13 1738 -58 4 -3473 3 -3479 -1z"/>
<path d="M4671 4070 c-5 -11 -7 -3446 -2 -3481 1 -4 286 -6 634 -5 l632 2 78
27 c188 65 321 203 383 397 16 51 17 155 19 1563 1 1366 0 1507 -14 1508 -9 1
-400 2 -869 2 -750 2 -855 0 -861 -13z"/>
</g>
</svg>
